<svg xmlns="http://www.w3.org/2000/svg" xmlns:xlink="http://www.w3.org/1999/xlink" viewBox="0 0 65 65" fill="#fff" fill-rule="evenodd" stroke="#000" stroke-linecap="round" stroke-linejoin="round"><use xlink:href="#A" x=".5" y=".5"/><symbol id="A" overflow="visible"><path d="M59.824 17.275A31.64 31.64 0 0 1 8.126 52.807a31.64 31.64 0 0 1-.547-41.715 31.64 31.64 0 0 1 41.287-5.987" stroke="gray" fill="none" stroke-width=".734"/><g stroke="none" fill-rule="nonzero"><path d="M7.167 31.637c0-13.556 10.913-24.469 24.469-24.469s24.469 10.913 24.469 24.469-10.913 24.469-24.469 24.469S7.167 45.193 7.167 31.637z" fill="navy"/><path d="M34.605 21.502a7.15 7.15 0 1 1 14.333 0 7.15 7.15 0 1 1-14.333 0z"/><path d="M48.938 7.168A7.15 7.15 0 0 1 56.105.001a7.15 7.15 0 0 1 7.167 7.167 7.15 7.15 0 1 1-14.335 0z" fill="navy"/><path d="M25.007 43.871v-1.806h-7.928V27.816h-2.048v16.055h9.976m11.007 0V32.331h-1.828v6.365c0 2.356-1.233 3.898-3.149 3.898-1.454 0-2.379-.881-2.379-2.268v-7.995H26.83v8.722c0 1.916 1.431 3.149 3.678 3.149 1.696 0 2.775-.595 3.854-2.114v1.784h1.651m13.426-.045v-1.387c-.198.044-.286.044-.396.044-.639 0-.991-.33-.991-.903V35.15c0-2.048-1.498-3.149-4.338-3.149-2.797 0-4.515 1.079-4.625 3.744h1.85c.154-1.41.991-2.048 2.709-2.048 1.652 0 2.577.617 2.577 1.718v.485c0 .771-.462 1.101-1.916 1.277-2.599.33-2.995.418-3.7.705-1.343.551-2.026 1.586-2.026 2.995 0 2.092 1.453 3.325 3.788 3.325a5.4 5.4 0 0 0 3.92-1.696c.198.881.991 1.519 1.894 1.519.374 0 .661-.044 1.255-.198m-3.215-3.942c0 1.652-1.674 2.709-3.457 2.709-1.431 0-2.268-.507-2.268-1.762 0-1.211.815-1.74 2.775-2.026 1.938-.264 2.334-.352 2.951-.639v1.718"/></g></symbol></svg>